<?xml version="1.0" standalone="no"?>
<!DOCTYPE svg PUBLIC "-//W3C//DTD SVG 20010904//EN"
 "http://www.w3.org/TR/2001/REC-SVG-20010904/DTD/svg10.dtd">
<svg version="1.0" xmlns="http://www.w3.org/2000/svg"
 width="64.000000pt" height="64.000000pt" viewBox="0 0 64.000000 64.000000"
 preserveAspectRatio="xMidYMid meet">

<g transform="translate(0.000000,64.000000) scale(0.100000,-0.100000)"
fill="#000000" stroke="none">
<path d="M140 610 c0 -19 7 -20 180 -20 173 0 180 1 180 20 0 19 -7 20 -180
20 -173 0 -180 -1 -180 -20z m190 0 c0 -5 -4 -10 -10 -10 -5 0 -10 5 -10 10 0
6 5 10 10 10 6 0 10 -4 10 -10z"/>
<path d="M140 545 c0 -29 12 -32 34 -9 19 19 12 34 -15 34 -14 0 -19 -7 -19
-25z"/>
<path d="M182 524 l-42 -45 2 -232 3 -232 49 -3 c27 -2 54 2 60 8 6 6 20 97
32 203 18 163 19 195 8 212 -8 11 -14 45 -14 77 0 57 -1 58 -27 57 -19 -1 -42
-15 -71 -45z"/>
<path d="M304 557 c-3 -8 -4 -36 -2 -63 2 -36 7 -49 18 -49 20 0 22 116 3 122
-7 3 -16 -2 -19 -10z"/>
<path d="M360 512 c0 -33 -6 -66 -14 -77 -12 -17 -11 -47 6 -210 11 -105 25
-196 31 -203 7 -8 28 -12 61 -10 l51 3 3 232 2 232 -45 46 c-30 29 -54 45 -70
45 -24 0 -25 -3 -25 -58z"/>
<path d="M455 561 c-6 -10 21 -41 36 -41 5 0 9 11 9 25 0 18 -5 25 -19 25 -11
0 -22 -4 -26 -9z"/>
</g>
</svg>
