<?xml version="1.0" standalone="no"?>
<!DOCTYPE svg PUBLIC "-//W3C//DTD SVG 20010904//EN"
 "http://www.w3.org/TR/2001/REC-SVG-20010904/DTD/svg10.dtd">
<svg version="1.0" xmlns="http://www.w3.org/2000/svg"
 width="64.000000pt" height="64.000000pt" viewBox="0 0 64.000000 64.000000"
 preserveAspectRatio="xMidYMid meet">

<g transform="translate(0.000000,64.000000) scale(0.100000,-0.100000)"
fill="#000000" stroke="none">
<path d="M107 613 c-4 -3 -24 -9 -44 -12 -32 -5 -38 -11 -39 -31 -1 -14 -7
-38 -13 -53 -21 -54 -7 -111 41 -164 18 -19 19 -26 9 -54 -6 -18 -11 -45 -11
-60 0 -40 34 -39 54 0 11 20 29 33 58 42 36 12 47 22 65 59 11 25 24 63 28 85
3 23 17 52 32 68 l27 27 -35 36 c-19 20 -46 42 -61 50 -28 14 -99 19 -111 7z
m135 -46 c46 -36 53 -54 26 -71 -14 -9 -24 -4 -55 26 -21 20 -54 45 -73 57
l-35 21 47 0 c37 0 55 -7 90 -33z m-118 -1 c38 -16 116 -83 116 -99 0 -6 -17
5 -37 25 -21 20 -58 48 -83 62 -50 28 -48 34 4 12z m1 -35 c17 -10 46 -32 65
-49 39 -33 36 -45 -26 -81 l-34 -20 -40 50 c-59 74 -65 119 -17 119 12 0 36
-9 52 -19z m-26 -136 c6 -3 11 -11 11 -16 0 -6 -5 -7 -11 -4 -15 10 -69 86
-69 98 0 6 13 -8 29 -31 16 -22 34 -43 40 -47z m-33 -12 c23 -31 24 -34 5 -18
-22 19 -46 55 -38 55 3 0 17 -17 33 -37z m133 -12 c-12 -33 -52 -61 -89 -61
-11 0 -20 4 -20 10 0 9 112 91 118 86 1 -2 -3 -17 -9 -35z m-4 -51 c-10 -11
-22 -20 -28 -20 -5 0 1 9 14 20 31 25 37 25 14 0z m-113 -82 c-7 -7 -12 -8
-12 -2 0 14 12 26 19 19 2 -3 -1 -11 -7 -17z"/>
<path d="M350 547 c0 -53 -4 -67 -21 -83 -27 -23 -58 -90 -59 -123 0 -23 0
-24 78 -16 96 8 118 8 215 0 77 -8 77 -7 77 16 -1 33 -32 100 -59 123 -17 16
-21 30 -21 83 0 35 -4 63 -10 63 -6 0 -10 -27 -10 -60 0 -57 -2 -62 -42 -102
l-43 -43 -42 43 c-41 40 -43 45 -43 102 0 33 -4 60 -10 60 -6 0 -10 -28 -10
-63z m42 -99 c9 -7 23 -25 32 -39 l17 -26 -45 -12 c-25 -6 -59 -11 -75 -11
-29 0 -30 1 -20 28 12 32 48 72 64 72 6 0 18 -6 27 -12z m186 -10 c11 -13 26
-36 32 -52 l11 -29 -56 7 c-35 4 -55 2 -55 -4 0 -5 12 -10 27 -10 14 0 24 -3
20 -6 -3 -3 -25 -3 -48 1 -31 5 -38 10 -28 17 11 8 11 11 1 15 -23 9 34 83 63
83 6 0 21 -10 33 -22z m-141 -84 c-3 -3 -12 -4 -19 -1 -8 3 -5 6 6 6 11 1 17
-2 13 -5z m-44 -11 c-7 -2 -19 -2 -25 0 -7 3 -2 5 12 5 14 0 19 -2 13 -5z
m-76 -9 c-3 -3 -12 -4 -19 -1 -8 3 -5 6 6 6 11 1 17 -2 13 -5z m296 -1 c-7 -2
-19 -2 -25 0 -7 3 -2 5 12 5 14 0 19 -2 13 -5z"/>
<path d="M228 247 c-97 -59 -167 -111 -177 -133 -21 -47 42 -104 92 -85 14 6
31 20 38 33 6 13 18 27 25 31 19 11 18 36 -1 43 -17 7 -21 34 -5 34 6 0 15
-11 20 -25 10 -26 24 -32 35 -15 3 6 19 10 35 10 60 0 92 78 50 120 -28 28
-47 25 -112 -13z m100 1 c17 -17 15 -63 -3 -78 -19 -16 -71 -15 -91 1 -22 18
-17 41 14 66 30 25 62 29 80 11z m-141 -65 c-9 -9 -20 -14 -24 -10 -3 4 2 14
13 21 25 19 33 10 11 -11z m-17 -43 c23 -44 -19 -107 -64 -96 -55 14 -54 70 2
100 37 20 49 20 62 -4z"/>
<path d="M565 219 c-58 -37 -176 -92 -234 -110 -42 -13 -45 -16 -35 -43 5 -13
18 -15 80 -9 67 5 78 4 105 -16 42 -31 59 -22 59 31 0 47 16 72 68 107 36 25
37 30 19 54 -11 16 -16 15 -62 -14z m6 -47 c-46 -43 -51 -52 -51 -90 0 -23 -2
-42 -5 -42 -3 0 -19 10 -35 21 -26 20 -37 21 -102 15 -84 -8 -81 0 20 39 41
16 102 46 135 66 85 51 99 48 38 -9z"/>
</g>
</svg>
