<?xml version="1.0" standalone="no"?>
<!DOCTYPE svg PUBLIC "-//W3C//DTD SVG 20010904//EN"
 "http://www.w3.org/TR/2001/REC-SVG-20010904/DTD/svg10.dtd">
<svg version="1.0" xmlns="http://www.w3.org/2000/svg"
 width="64.000000pt" height="64.000000pt" viewBox="0 0 64.000000 64.000000"
 preserveAspectRatio="xMidYMid meet">

<g transform="translate(0.000000,64.000000) scale(0.100000,-0.100000)"
fill="#000000" stroke="none">
<path d="M242 478 c-6 -7 -13 -30 -17 -50 -8 -42 -28 -63 -67 -73 -23 -6 -34
-1 -68 34 -45 46 -52 48 -74 25 -12 -12 -16 -37 -16 -105 l0 -89 320 0 c306 0
320 1 320 19 0 32 -38 70 -78 76 -20 3 -49 9 -64 14 -22 7 -31 4 -49 -15 -17
-18 -25 -21 -36 -12 -11 9 -10 15 9 35 17 18 19 26 10 35 -9 9 -18 6 -40 -15
-24 -23 -31 -25 -40 -14 -9 11 -6 19 13 37 19 18 22 26 13 37 -9 11 -16 9 -40
-14 -21 -20 -31 -24 -39 -16 -9 9 -6 19 10 38 l21 27 -24 19 c-28 22 -49 24
-64 7z"/>
</g>
</svg>
