<?xml version="1.0" standalone="no"?>
<!DOCTYPE svg PUBLIC "-//W3C//DTD SVG 20010904//EN"
 "http://www.w3.org/TR/2001/REC-SVG-20010904/DTD/svg10.dtd">
<svg version="1.0" xmlns="http://www.w3.org/2000/svg"
 width="64.000000pt" height="64.000000pt" viewBox="0 0 64.000000 64.000000"
 preserveAspectRatio="xMidYMid meet">

<g transform="translate(0.000000,64.000000) scale(0.100000,-0.100000)"
fill="#000000" stroke="none">
<path d="M226 525 c-10 -97 -3 -105 94 -105 97 0 104 8 94 105 -6 54 -10 65
-25 65 -14 0 -19 -7 -19 -29 0 -18 -10 -41 -25 -58 l-25 -28 -25 28 c-15 17
-25 40 -25 58 0 22 -5 29 -19 29 -15 0 -19 -11 -25 -65z"/>
<path d="M245 390 c-3 -5 0 -13 8 -16 23 -9 142 0 142 11 0 14 -142 19 -150 5z"/>
<path d="M216 335 c-59 -89 -115 -248 -93 -262 30 -18 364 -18 393 0 18 11
-11 112 -59 201 l-42 78 -93 1 c-83 2 -94 0 -106 -18z"/>
</g>
</svg>
